<svg width="16" height="16" viewBox="0 0 16 16" fill="none" xmlns="http://www.w3.org/2000/svg">
<path opacity="0.3" d="M2.66602 7.99984C2.66602 10.9398 5.05935 13.3332 7.99935 13.3332C10.9393 13.3332 13.3327 10.9398 13.3327 7.99984C13.3327 5.05984 10.9393 2.6665 7.99935 2.6665C5.05935 2.6665 2.66602 5.05984 2.66602 7.99984Z" fill="#7B61FF"/>
<path fill-rule="evenodd" clip-rule="evenodd" d="M8.00004 1.33325C4.32004 1.33325 1.33337 4.31992 1.33337 7.99992C1.33337 11.6799 4.32004 14.6666 8.00004 14.6666C11.68 14.6666 14.6667 11.6799 14.6667 7.99992C14.6667 4.31992 11.68 1.33325 8.00004 1.33325ZM8.00004 13.3333C5.06004 13.3333 2.66671 10.9399 2.66671 7.99992C2.66671 5.05992 5.06004 2.66659 8.00004 2.66659C10.94 2.66659 13.3334 5.05992 13.3334 7.99992C13.3334 10.9399 10.94 13.3333 8.00004 13.3333Z" fill="#7B61FF"/>
<path d="M11.0535 5.05322L11.9935 5.99989L6.6602 11.3332L3.99353 8.67322L4.9402 7.73322L6.6602 9.44656L11.0535 5.05322Z" fill="#7B61FF"/>
</svg>
