<svg width="16" height="16" viewBox="0 0 16 16" fill="none" xmlns="http://www.w3.org/2000/svg">
<path d="M8.62769 3.99996C8.62769 3.63177 8.32921 3.33329 7.96102 3.33329C7.59283 3.33329 7.29435 3.63177 7.29435 3.99996V7.99996C7.29435 8.25247 7.43702 8.48332 7.66288 8.59624L10.3295 9.92958C10.6589 10.0942 11.0593 9.96075 11.224 9.63143C11.3886 9.30212 11.2551 8.90167 10.9258 8.73701L8.62769 7.58794V3.99996Z" fill="#717D96"/>
<path fill-rule="evenodd" clip-rule="evenodd" d="M7.96102 0.666626C3.91093 0.666626 0.627686 3.94987 0.627686 7.99996C0.627686 12.05 3.91093 15.3333 7.96102 15.3333C12.0111 15.3333 15.2944 12.05 15.2944 7.99996C15.2944 3.94987 12.0111 0.666626 7.96102 0.666626ZM1.96102 7.99996C1.96102 4.68625 4.64731 1.99996 7.96102 1.99996C11.2747 1.99996 13.961 4.68625 13.961 7.99996C13.961 11.3137 11.2747 14 7.96102 14C4.64731 14 1.96102 11.3137 1.96102 7.99996Z" fill="#717D96"/>
</svg>
