<svg width="40" height="40" viewBox="0 0 40 40" fill="none" xmlns="http://www.w3.org/2000/svg">
<path d="M21.41 19.9999L25.71 15.7099C25.8983 15.5216 26.0041 15.2662 26.0041 14.9999C26.0041 14.7336 25.8983 14.4782 25.71 14.2899C25.5217 14.1016 25.2663 13.9958 25 13.9958C24.7337 13.9958 24.4783 14.1016 24.29 14.2899L20 18.5899L15.71 14.2899C15.5217 14.1016 15.2663 13.9958 15 13.9958C14.7337 13.9958 14.4783 14.1016 14.29 14.2899C14.1017 14.4782 13.9959 14.7336 13.9959 14.9999C13.9959 15.2662 14.1017 15.5216 14.29 15.7099L18.59 19.9999L14.29 24.2899C14.1963 24.3829 14.1219 24.4935 14.0711 24.6154C14.0203 24.7372 13.9942 24.8679 13.9942 24.9999C13.9942 25.132 14.0203 25.2627 14.0711 25.3845C14.1219 25.5064 14.1963 25.617 14.29 25.7099C14.383 25.8037 14.4936 25.8781 14.6154 25.9288C14.7373 25.9796 14.868 26.0057 15 26.0057C15.132 26.0057 15.2627 25.9796 15.3846 25.9288C15.5064 25.8781 15.617 25.8037 15.71 25.7099L20 21.4099L24.29 25.7099C24.383 25.8037 24.4936 25.8781 24.6154 25.9288C24.7373 25.9796 24.868 26.0057 25 26.0057C25.132 26.0057 25.2627 25.9796 25.3846 25.9288C25.5064 25.8781 25.617 25.8037 25.71 25.7099C25.8037 25.617 25.8781 25.5064 25.9289 25.3845C25.9797 25.2627 26.0058 25.132 26.0058 24.9999C26.0058 24.8679 25.9797 24.7372 25.9289 24.6154C25.8781 24.4935 25.8037 24.3829 25.71 24.2899L21.41 19.9999Z" fill="black"/>
</svg>
