<svg width="12" height="16" viewBox="0 0 12 16" fill="none" xmlns="http://www.w3.org/2000/svg">
<path fill-rule="evenodd" clip-rule="evenodd" d="M12 1.33366C12 0.965469 11.7015 0.666992 11.3333 0.666992H2.33333C1.71449 0.666992 1.121 0.912825 0.683417 1.35041C0.245833 1.78799 0 2.38149 0 3.00033V13.0003C0 13.6192 0.245833 14.2127 0.683417 14.6502C1.121 15.0878 1.71449 15.3337 2.33333 15.3337H11.3333C11.7015 15.3337 12 15.0352 12 14.667V1.33366ZM1.62623 2.29322C1.81376 2.10568 2.06812 2.00033 2.33333 2.00033H10.6667V10.667H2.33333C1.98411 10.667 1.64295 10.7453 1.33333 10.8921V3.00033C1.33333 2.73511 1.43869 2.48076 1.62623 2.29322ZM1.33333 13.0003C1.33333 13.2655 1.43869 13.5199 1.62623 13.7074C1.81376 13.895 2.06812 14.0003 2.33333 14.0003H10.6667V12.0003H2.33333C2.06812 12.0003 1.81376 12.1057 1.62623 12.2932C1.43869 12.4808 1.33333 12.7351 1.33333 13.0003Z" fill="#2D3648"/>
</svg>
