<svg width="15" height="14" viewBox="0 0 15 14" fill="none" xmlns="http://www.w3.org/2000/svg">
<path fill-rule="evenodd" clip-rule="evenodd" d="M0.228678 0.719456C0.337917 0.484013 0.573873 0.333374 0.833424 0.333374H14.1668C14.4263 0.333374 14.6623 0.484013 14.7715 0.719456C14.8807 0.954899 14.8434 1.23234 14.6758 1.43052L9.50009 7.55081V13C9.50009 13.2311 9.38046 13.4457 9.18391 13.5671C8.98737 13.6886 8.74194 13.6997 8.53528 13.5963L5.86861 12.263C5.64276 12.1501 5.50009 11.9192 5.50009 11.6667V7.55081L0.324377 1.43052C0.156779 1.23234 0.11944 0.954899 0.228678 0.719456ZM2.27029 1.66671L6.6758 6.87622C6.77758 6.99657 6.83342 7.14909 6.83342 7.30671V11.2547L8.16676 11.9214V7.30671C8.16676 7.14909 8.2226 6.99657 8.32438 6.87622L12.7299 1.66671H2.27029Z" fill="#2D3648"/>
</svg>
