<svg width="20" height="17" viewBox="0 0 20 17" fill="none" xmlns="http://www.w3.org/2000/svg">
<path d="M10.3345 0.301034C10.1443 0.129897 9.85567 0.129897 9.66552 0.301034L0.968498 8.12835C0.627889 8.4349 0.844737 9 1.30298 9H2.5C2.77614 9 3 9.22386 3 9.5V16.5C3 16.7761 3.22386 17 3.5 17H8.5C8.77614 17 9 16.7761 9 16.5V11.5C9 11.2239 9.22386 11 9.5 11H10.5C10.7761 11 11 11.2239 11 11.5V16.5C11 16.7761 11.2239 17 11.5 17H16.5C16.7761 17 17 16.7761 17 16.5V9.5C17 9.22386 17.2239 9 17.5 9H18.697C19.1553 9 19.3721 8.4349 19.0315 8.12835L10.3345 0.301034ZM15 14.5C15 14.7761 14.7761 15 14.5 15H13.5C13.2239 15 13 14.7761 13 14.5V9.5C13 9.22386 12.7761 9 12.5 9H7.5C7.22386 9 7 9.22386 7 9.5V14.5C7 14.7761 6.77614 15 6.5 15H5.5C5.22386 15 5 14.7761 5 14.5V7.41268C5 7.27094 5.06016 7.13586 5.16552 7.04103L9.66552 2.99103C9.85567 2.8199 10.1443 2.8199 10.3345 2.99103L14.8345 7.04103C14.9398 7.13586 15 7.27094 15 7.41268V14.5Z" fill="#999999"/>
</svg>
