<svg width="20" height="20" viewBox="0 0 20 20" fill="none" xmlns="http://www.w3.org/2000/svg">
<rect width="20" height="20" rx="4" fill="#441949"/>
<path fill-rule="evenodd" clip-rule="evenodd" d="M6.53173 11.5857C6.53173 12.2838 5.96834 12.8472 5.27026 12.8472C4.57218 12.8472 4.00879 12.2819 4.00879 11.5857C4.00879 10.8895 4.57218 10.3242 5.27026 10.3242H6.53173V11.5857ZM7.16152 11.5857C7.16152 10.8876 7.72492 10.3242 8.423 10.3242C9.12107 10.3242 9.68447 10.8876 9.68447 11.5857V14.7384C9.68447 15.4365 9.12107 15.9999 8.423 15.9999C7.72492 15.9999 7.16152 15.4365 7.16152 14.7384V11.5857Z" fill="#E01E5A"/>
<path fill-rule="evenodd" clip-rule="evenodd" d="M8.42369 6.52294C7.72561 6.52294 7.16222 5.95955 7.16222 5.26147C7.16222 4.56339 7.72561 4 8.42369 4C9.12177 4 9.68516 4.56339 9.68516 5.26147V6.52294H8.42369ZM8.42369 7.16222C9.12177 7.16222 9.68516 7.72561 9.68516 8.42369C9.68516 9.12177 9.12177 9.68516 8.42369 9.68516H5.26147C4.56339 9.68516 4 9.11987 4 8.42369C4 7.72751 4.56339 7.16222 5.26147 7.16222H8.42369Z" fill="#36C5F0"/>
<path fill-rule="evenodd" clip-rule="evenodd" d="M13.4769 8.42369C13.4769 7.72561 14.0403 7.16222 14.7384 7.16222C15.4365 7.16222 15.9999 7.72561 15.9999 8.42369C15.9999 9.12177 15.4365 9.68516 14.7384 9.68516H13.4769V8.42369ZM12.8472 8.42369C12.8472 9.12177 12.2838 9.68516 11.5857 9.68516C10.8876 9.68516 10.3242 9.12177 10.3242 8.42369V5.26147C10.3242 4.56339 10.8876 4 11.5857 4C12.2838 4 12.8472 4.56339 12.8472 5.26147V8.42369Z" fill="#2EB67D"/>
<path fill-rule="evenodd" clip-rule="evenodd" d="M11.5857 13.477C12.2838 13.477 12.8472 14.0404 12.8472 14.7384C12.8472 15.4365 12.2838 15.9999 11.5857 15.9999C10.8876 15.9999 10.3242 15.4365 10.3242 14.7384V13.477H11.5857ZM11.5857 12.8472C10.8876 12.8472 10.3242 12.2838 10.3242 11.5857C10.3242 10.8876 10.8876 10.3242 11.5857 10.3242H14.7479C15.446 10.3242 16.0094 10.8876 16.0094 11.5857C16.0094 12.2838 15.446 12.8472 14.7479 12.8472H11.5857Z" fill="#ECB22E"/>
</svg>
