<svg width="16" height="17" viewBox="0 0 16 17" fill="none" xmlns="http://www.w3.org/2000/svg">
<path d="M3.40625 13.0938C2.83125 12.5188 3.2125 11.3125 2.91875 10.6062C2.625 9.9 1.5 9.28125 1.5 8.5C1.5 7.71875 2.6125 7.125 2.91875 6.39375C3.225 5.6625 2.83125 4.48125 3.40625 3.90625C3.98125 3.33125 5.1875 3.7125 5.89375 3.41875C6.6 3.125 7.21875 2 8 2C8.78125 2 9.375 3.1125 10.1062 3.41875C10.8375 3.725 12.0188 3.33125 12.5938 3.90625C13.1687 4.48125 12.7875 5.6875 13.0813 6.39375C13.375 7.1 14.5 7.71875 14.5 8.5C14.5 9.28125 13.3875 9.875 13.0813 10.6062C12.775 11.3375 13.1687 12.5188 12.5938 13.0938C12.0188 13.6687 10.8125 13.2875 10.1062 13.5813C9.4 13.875 8.78125 15 8 15C7.21875 15 6.625 13.8875 5.89375 13.5813C5.1625 13.275 3.98125 13.6687 3.40625 13.0938Z" stroke="#2D3648" stroke-width="1.5" stroke-linecap="round" stroke-linejoin="round"/>
<path d="M8 5.5V9" stroke="#2D3648" stroke-width="1.5" stroke-linecap="round" stroke-linejoin="round"/>
<path d="M8 12C8.41421 12 8.75 11.6642 8.75 11.25C8.75 10.8358 8.41421 10.5 8 10.5C7.58579 10.5 7.25 10.8358 7.25 11.25C7.25 11.6642 7.58579 12 8 12Z" fill="#2D3648"/>
</svg>
