<svg width="12" height="12" viewBox="0 0 12 12" fill="none" xmlns="http://www.w3.org/2000/svg">
<path d="M6.6665 1.33332C6.6665 0.965133 6.36803 0.666656 5.99984 0.666656C5.63165 0.666656 5.33317 0.965133 5.33317 1.33332V5.33332H1.33317C0.964981 5.33332 0.666504 5.6318 0.666504 5.99999C0.666504 6.36818 0.964981 6.66666 1.33317 6.66666H5.33317V10.6667C5.33317 11.0348 5.63165 11.3333 5.99984 11.3333C6.36803 11.3333 6.6665 11.0348 6.6665 10.6667V6.66666H10.6665C11.0347 6.66666 11.3332 6.36818 11.3332 5.99999C11.3332 5.6318 11.0347 5.33332 10.6665 5.33332H6.6665V1.33332Z" fill="#717D96"/>
</svg>
