<svg width="14" height="16" viewBox="0 0 14 16" fill="none" xmlns="http://www.w3.org/2000/svg">
<path fill-rule="evenodd" clip-rule="evenodd" d="M7.40897 0.807424C7.16823 0.620182 6.83112 0.620182 6.59038 0.807424L0.590381 5.47409C0.42799 5.60039 0.333008 5.7946 0.333008 6.00033V13.3337C0.333008 13.8641 0.543721 14.3728 0.918794 14.7479C1.29387 15.1229 1.80257 15.3337 2.33301 15.3337H11.6663C12.1968 15.3337 12.7055 15.1229 13.0806 14.7479C13.4556 14.3728 13.6663 13.8641 13.6663 13.3337V6.00033C13.6663 5.7946 13.5714 5.60039 13.409 5.47409L7.40897 0.807424ZM9.66634 14.0003H11.6663C11.8432 14.0003 12.0127 13.9301 12.1377 13.8051C12.2628 13.68 12.333 13.5105 12.333 13.3337V6.32638L6.99967 2.17823L1.66634 6.32638V13.3337C1.66634 13.5105 1.73658 13.68 1.8616 13.8051C1.98663 13.9301 2.1562 14.0003 2.33301 14.0003H4.33301V8.00033C4.33301 7.63213 4.63148 7.33366 4.99967 7.33366H8.99967C9.36786 7.33366 9.66634 7.63213 9.66634 8.00033V14.0003ZM5.66634 14.0003V8.66699H8.33301V14.0003H5.66634Z" fill="#2D3648"/>
</svg>
