<svg width="14" height="10" viewBox="0 0 14 10" fill="none" xmlns="http://www.w3.org/2000/svg">
<path d="M0.999674 0.333008C0.631485 0.333008 0.333008 0.631485 0.333008 0.999674C0.333008 1.36786 0.631485 1.66634 0.999674 1.66634H1.00634C1.37453 1.66634 1.67301 1.36786 1.67301 0.999674C1.67301 0.631485 1.37453 0.333008 1.00634 0.333008H0.999674Z" fill="#2D3648"/>
<path d="M4.33301 0.333008C3.96482 0.333008 3.66634 0.631485 3.66634 0.999674C3.66634 1.36786 3.96482 1.66634 4.33301 1.66634H12.9997C13.3679 1.66634 13.6663 1.36786 13.6663 0.999674C13.6663 0.631485 13.3679 0.333008 12.9997 0.333008H4.33301Z" fill="#2D3648"/>
<path d="M4.33301 4.33301C3.96482 4.33301 3.66634 4.63148 3.66634 4.99967C3.66634 5.36786 3.96482 5.66634 4.33301 5.66634H12.9997C13.3679 5.66634 13.6663 5.36786 13.6663 4.99967C13.6663 4.63148 13.3679 4.33301 12.9997 4.33301H4.33301Z" fill="#2D3648"/>
<path d="M3.66634 8.99967C3.66634 8.63148 3.96482 8.33301 4.33301 8.33301H12.9997C13.3679 8.33301 13.6663 8.63148 13.6663 8.99967C13.6663 9.36786 13.3679 9.66634 12.9997 9.66634H4.33301C3.96482 9.66634 3.66634 9.36786 3.66634 8.99967Z" fill="#2D3648"/>
<path d="M0.333008 4.99967C0.333008 4.63148 0.631485 4.33301 0.999674 4.33301H1.00634C1.37453 4.33301 1.67301 4.63148 1.67301 4.99967C1.67301 5.36786 1.37453 5.66634 1.00634 5.66634H0.999674C0.631485 5.66634 0.333008 5.36786 0.333008 4.99967Z" fill="#2D3648"/>
<path d="M0.999674 8.33301C0.631485 8.33301 0.333008 8.63148 0.333008 8.99967C0.333008 9.36786 0.631485 9.66634 0.999674 9.66634H1.00634C1.37453 9.66634 1.67301 9.36786 1.67301 8.99967C1.67301 8.63148 1.37453 8.33301 1.00634 8.33301H0.999674Z" fill="#2D3648"/>
</svg>
