<svg width="16" height="16" viewBox="0 0 16 16" fill="none" xmlns="http://www.w3.org/2000/svg">
<path fill-rule="evenodd" clip-rule="evenodd" d="M11.3335 1.33332C11.3335 0.965133 11.035 0.666656 10.6668 0.666656C10.2986 0.666656 10.0002 0.965133 10.0002 1.33332V1.99999H6.00016V1.33332C6.00016 0.965133 5.70169 0.666656 5.3335 0.666656C4.96531 0.666656 4.66683 0.965133 4.66683 1.33332V1.99999H3.3335C2.22893 1.99999 1.3335 2.89542 1.3335 3.99999V13.3333C1.3335 14.4379 2.22893 15.3333 3.3335 15.3333H12.6668C13.7714 15.3333 14.6668 14.4379 14.6668 13.3333V3.99999C14.6668 2.89542 13.7714 1.99999 12.6668 1.99999H11.3335V1.33332ZM13.3335 5.99999V3.99999C13.3335 3.6318 13.035 3.33332 12.6668 3.33332H11.3335V3.99999C11.3335 4.36818 11.035 4.66666 10.6668 4.66666C10.2986 4.66666 10.0002 4.36818 10.0002 3.99999V3.33332H6.00016V3.99999C6.00016 4.36818 5.70169 4.66666 5.3335 4.66666C4.96531 4.66666 4.66683 4.36818 4.66683 3.99999V3.33332H3.3335C2.96531 3.33332 2.66683 3.6318 2.66683 3.99999V5.99999H13.3335ZM2.66683 7.33332H13.3335V13.3333C13.3335 13.7015 13.035 14 12.6668 14H3.3335C2.96531 14 2.66683 13.7015 2.66683 13.3333V7.33332Z" fill="#4A5468"/>
</svg>
