<svg width="16" height="16" viewBox="0 0 16 16" fill="none" xmlns="http://www.w3.org/2000/svg">
<path d="M6.65265 2.1437C7.91469 1.85856 9.2351 1.98901 10.4169 2.51561C10.7533 2.66546 11.1474 2.51431 11.2972 2.17799C11.4471 1.84168 11.2959 1.44756 10.9596 1.29771C9.51513 0.654086 7.9013 0.49464 6.35881 0.843146C4.81631 1.19165 3.42779 2.02944 2.40034 3.23156C1.37289 4.43368 0.761547 5.93572 0.657498 7.51367C0.553448 9.09162 0.962264 10.6609 1.82297 11.9876C2.68368 13.3142 3.95017 14.327 5.43355 14.8751C6.91693 15.4231 8.53772 15.4769 10.0542 15.0286C11.5707 14.5802 12.9016 13.6536 13.8484 12.387C14.7953 11.1205 15.3074 9.58175 15.3083 8.00037V7.38666C15.3083 7.01847 15.0098 6.71999 14.6416 6.71999C14.2734 6.71999 13.9749 7.01847 13.9749 7.38666V7.99961C13.9742 9.29346 13.5552 10.5524 12.7805 11.5887C12.0058 12.625 10.9169 13.3831 9.67615 13.75C8.43539 14.1168 7.10929 14.0728 5.89562 13.6244C4.68194 13.176 3.64573 12.3473 2.94151 11.2619C2.2373 10.1764 1.90281 8.89245 1.98794 7.6014C2.07307 6.31035 2.57326 5.08141 3.4139 4.09785C4.25455 3.1143 5.39061 2.42884 6.65265 2.1437Z" fill="#2EDB4B"/>
<path d="M15.1132 3.13784C15.3735 2.87736 15.3733 2.45525 15.1128 2.19503C14.8523 1.93481 14.4302 1.93502 14.17 2.1955L7.9747 8.39696L6.44634 6.8686C6.18599 6.60825 5.76388 6.60825 5.50353 6.8686C5.24318 7.12895 5.24318 7.55106 5.50353 7.81141L7.50353 9.81141C7.6286 9.93647 7.79823 10.0067 7.9751 10.0067C8.15197 10.0066 8.32157 9.9363 8.44658 9.81117L15.1132 3.13784Z" fill="#2EDB4B"/>
</svg>
