<svg width="15" height="15" viewBox="0 0 15 15" fill="none" xmlns="http://www.w3.org/2000/svg">
<path fill-rule="evenodd" clip-rule="evenodd" d="M1.49967 0.833008C1.13148 0.833008 0.833008 1.13148 0.833008 1.49967V6.16634C0.833008 6.53453 1.13148 6.83301 1.49967 6.83301H6.16634C6.53453 6.83301 6.83301 6.53453 6.83301 6.16634V1.49967C6.83301 1.13148 6.53453 0.833008 6.16634 0.833008H1.49967ZM2.16634 5.49967V2.16634H5.49967V5.49967H2.16634Z" fill="#717D96"/>
<path fill-rule="evenodd" clip-rule="evenodd" d="M8.83301 0.833008C8.46482 0.833008 8.16634 1.13148 8.16634 1.49967V6.16634C8.16634 6.53453 8.46482 6.83301 8.83301 6.83301H13.4997C13.8679 6.83301 14.1663 6.53453 14.1663 6.16634V1.49967C14.1663 1.13148 13.8679 0.833008 13.4997 0.833008H8.83301ZM9.49967 5.49967V2.16634H12.833V5.49967H9.49967Z" fill="#717D96"/>
<path fill-rule="evenodd" clip-rule="evenodd" d="M8.16634 8.83301C8.16634 8.46482 8.46482 8.16634 8.83301 8.16634H13.4997C13.8679 8.16634 14.1663 8.46482 14.1663 8.83301V13.4997C14.1663 13.8679 13.8679 14.1663 13.4997 14.1663H8.83301C8.46482 14.1663 8.16634 13.8679 8.16634 13.4997V8.83301ZM9.49967 9.49967V12.833H12.833V9.49967H9.49967Z" fill="#717D96"/>
<path fill-rule="evenodd" clip-rule="evenodd" d="M1.49967 8.16634C1.13148 8.16634 0.833008 8.46482 0.833008 8.83301V13.4997C0.833008 13.8679 1.13148 14.1663 1.49967 14.1663H6.16634C6.53453 14.1663 6.83301 13.8679 6.83301 13.4997V8.83301C6.83301 8.46482 6.53453 8.16634 6.16634 8.16634H1.49967ZM2.16634 12.833V9.49967H5.49967V12.833H2.16634Z" fill="#717D96"/>
</svg>
