<svg width="12" height="16" viewBox="0 0 12 16" fill="none" xmlns="http://www.w3.org/2000/svg">
<path d="M5.5286 0.861919C5.78895 0.601569 6.21106 0.601569 6.4714 0.861919L9.13807 3.52859C9.39842 3.78893 9.39842 4.21104 9.13807 4.47139C8.87772 4.73174 8.45561 4.73174 8.19526 4.47139L6.66667 2.9428L6.66667 9.99999C6.66667 10.3682 6.36819 10.6667 6 10.6667C5.63181 10.6667 5.33333 10.3682 5.33333 9.99999L5.33333 2.9428L3.80474 4.47139C3.54439 4.73174 3.12228 4.73174 2.86193 4.47139C2.60158 4.21104 2.60158 3.78893 2.86193 3.52859L5.5286 0.861919Z" fill="#717D96"/>
<path d="M0.666667 7.33332C1.03486 7.33332 1.33333 7.6318 1.33333 7.99999V13.3333C1.33333 13.5101 1.40357 13.6797 1.5286 13.8047C1.65362 13.9298 1.82319 14 2 14H10C10.1768 14 10.3464 13.9298 10.4714 13.8047C10.5964 13.6797 10.6667 13.5101 10.6667 13.3333V7.99999C10.6667 7.6318 10.9651 7.33332 11.3333 7.33332C11.7015 7.33332 12 7.6318 12 7.99999V13.3333C12 13.8638 11.7893 14.3725 11.4142 14.7475C11.0391 15.1226 10.5304 15.3333 10 15.3333H2C1.46957 15.3333 0.960859 15.1226 0.585786 14.7475C0.210714 14.3725 0 13.8638 0 13.3333V7.99999C0 7.6318 0.298477 7.33332 0.666667 7.33332Z" fill="#717D96"/>
</svg>
