<svg width="15" height="11" viewBox="0 0 15 11" fill="none" xmlns="http://www.w3.org/2000/svg">
<path d="M1.49967 0.833008C1.13148 0.833008 0.833008 1.13148 0.833008 1.49967C0.833008 1.86786 1.13148 2.16634 1.49967 2.16634H1.50634C1.87453 2.16634 2.17301 1.86786 2.17301 1.49967C2.17301 1.13148 1.87453 0.833008 1.50634 0.833008H1.49967Z" fill="#717D96"/>
<path d="M4.83301 0.833008C4.46482 0.833008 4.16634 1.13148 4.16634 1.49967C4.16634 1.86786 4.46482 2.16634 4.83301 2.16634H13.4997C13.8679 2.16634 14.1663 1.86786 14.1663 1.49967C14.1663 1.13148 13.8679 0.833008 13.4997 0.833008H4.83301Z" fill="#717D96"/>
<path d="M4.83301 4.83301C4.46482 4.83301 4.16634 5.13148 4.16634 5.49967C4.16634 5.86786 4.46482 6.16634 4.83301 6.16634H13.4997C13.8679 6.16634 14.1663 5.86786 14.1663 5.49967C14.1663 5.13148 13.8679 4.83301 13.4997 4.83301H4.83301Z" fill="#717D96"/>
<path d="M4.16634 9.49967C4.16634 9.13148 4.46482 8.83301 4.83301 8.83301H13.4997C13.8679 8.83301 14.1663 9.13148 14.1663 9.49967C14.1663 9.86786 13.8679 10.1663 13.4997 10.1663H4.83301C4.46482 10.1663 4.16634 9.86786 4.16634 9.49967Z" fill="#717D96"/>
<path d="M0.833008 5.49967C0.833008 5.13148 1.13148 4.83301 1.49967 4.83301H1.50634C1.87453 4.83301 2.17301 5.13148 2.17301 5.49967C2.17301 5.86786 1.87453 6.16634 1.50634 6.16634H1.49967C1.13148 6.16634 0.833008 5.86786 0.833008 5.49967Z" fill="#717D96"/>
<path d="M1.49967 8.83301C1.13148 8.83301 0.833008 9.13148 0.833008 9.49967C0.833008 9.86786 1.13148 10.1663 1.49967 10.1663H1.50634C1.87453 10.1663 2.17301 9.86786 2.17301 9.49967C2.17301 9.13148 1.87453 8.83301 1.50634 8.83301H1.49967Z" fill="#717D96"/>
</svg>
