<svg width="16" height="17" viewBox="0 0 16 17" fill="none" xmlns="http://www.w3.org/2000/svg">
<path d="M6.66671 7.16675C7.0349 7.16675 7.33337 7.46522 7.33337 7.83341V11.8334C7.33337 12.2016 7.0349 12.5001 6.66671 12.5001C6.29852 12.5001 6.00004 12.2016 6.00004 11.8334V7.83341C6.00004 7.46522 6.29852 7.16675 6.66671 7.16675Z" fill="#717D96"/>
<path d="M10 11.8334V7.83341C10 7.46522 9.70156 7.16675 9.33337 7.16675C8.96518 7.16675 8.66671 7.46522 8.66671 7.83341V11.8334C8.66671 12.2016 8.96518 12.5001 9.33337 12.5001C9.70156 12.5001 10 12.2016 10 11.8334Z" fill="#717D96"/>
<path fill-rule="evenodd" clip-rule="evenodd" d="M4.66671 3.83341V3.16675C4.66671 2.63631 4.87742 2.12761 5.25249 1.75253C5.62757 1.37746 6.13627 1.16675 6.66671 1.16675H9.33337C9.86381 1.16675 10.3725 1.37746 10.7476 1.75253C11.1227 2.12761 11.3334 2.63631 11.3334 3.16675V3.83341H14C14.3682 3.83341 14.6667 4.13189 14.6667 4.50008C14.6667 4.86827 14.3682 5.16675 14 5.16675H13.3334V13.8334C13.3334 14.3638 13.1227 14.8726 12.7476 15.2476C12.3725 15.6227 11.8638 15.8334 11.3334 15.8334H4.66671C4.13627 15.8334 3.62757 15.6227 3.25249 15.2476C2.87742 14.8726 2.66671 14.3638 2.66671 13.8334V5.16675H2.00004C1.63185 5.16675 1.33337 4.86827 1.33337 4.50008C1.33337 4.13189 1.63185 3.83341 2.00004 3.83341H4.66671ZM6.1953 2.69534C6.32033 2.57032 6.4899 2.50008 6.66671 2.50008H9.33337C9.51019 2.50008 9.67975 2.57032 9.80478 2.69534C9.9298 2.82037 10 2.98994 10 3.16675V3.83341H6.00004V3.16675C6.00004 2.98994 6.07028 2.82037 6.1953 2.69534ZM4.00004 5.16675V13.8334C4.00004 14.0102 4.07028 14.1798 4.1953 14.3048C4.32033 14.4298 4.4899 14.5001 4.66671 14.5001H11.3334C11.5102 14.5001 11.6798 14.4298 11.8048 14.3048C11.9298 14.1798 12 14.0102 12 13.8334V5.16675H4.00004Z" fill="#717D96"/>
</svg>
