<svg width="17" height="17" viewBox="0 0 17 17" fill="none" xmlns="http://www.w3.org/2000/svg">
<path d="M7.09508 2.27768C8.436 1.97472 9.83893 2.11333 11.0946 2.67284C11.452 2.83206 11.8707 2.67145 12.0299 2.31412C12.1892 1.95678 12.0286 1.53803 11.6712 1.37881C10.1365 0.694967 8.42178 0.525555 6.78287 0.895843C5.14397 1.26613 3.66867 2.15628 2.577 3.43353C1.48533 4.71078 0.835786 6.3067 0.725233 7.98327C0.614681 9.65985 1.04905 11.3272 1.96355 12.7368C2.87805 14.1463 4.2237 15.2225 5.79979 15.8048C7.37588 16.387 9.09797 16.4443 10.7092 15.9679C12.3205 15.4915 13.7346 14.507 14.7406 13.1612C15.7466 11.8155 16.2907 10.1806 16.2917 8.5004V7.84832C16.2917 7.45712 15.9745 7.13999 15.5833 7.13999C15.1921 7.13999 14.875 7.45712 14.875 7.84832V8.49959C14.8742 9.8743 14.4291 11.2119 13.606 12.313C12.7828 13.4141 11.6259 14.2195 10.3076 14.6093C8.98925 14.9991 7.58026 14.9523 6.29074 14.4759C5.00121 13.9995 3.90023 13.119 3.152 11.9657C2.40377 10.8125 2.04838 9.44823 2.13883 8.07649C2.22928 6.70475 2.76073 5.39899 3.65391 4.35397C4.5471 3.30895 5.75416 2.58064 7.09508 2.27768Z" fill="#717D96"/>
<path d="M16.0845 3.33395C16.3609 3.05719 16.3607 2.6087 16.084 2.33222C15.8072 2.05573 15.3587 2.05596 15.0822 2.33272L8.49976 8.92177L6.87588 7.29788C6.59926 7.02126 6.15076 7.02126 5.87414 7.29788C5.59752 7.5745 5.59752 8.023 5.87414 8.29962L7.99914 10.4246C8.13202 10.5575 8.31226 10.6321 8.50019 10.6321C8.68811 10.632 8.86831 10.5573 9.00113 10.4244L16.0845 3.33395Z" fill="#717D96"/>
</svg>
