<svg width="24" height="24" viewBox="0 0 24 24" fill="none" xmlns="http://www.w3.org/2000/svg">
<path d="M18.608 5.89001C18.5965 5.78451 18.5025 5.73751 18.4325 5.73751C18.3625 5.73751 16.8275 5.62051 16.8275 5.62051C16.8275 5.62051 15.7615 4.55451 15.6325 4.44901C15.5155 4.33201 15.2925 4.36701 15.199 4.39051C15.1875 4.39051 14.9645 4.46101 14.6015 4.57801C14.2385 3.53501 13.6175 2.58601 12.5045 2.58601H12.399C12.0935 2.18751 11.6955 2.00001 11.3675 2.00001C8.78995 2.00001 7.54795 5.22201 7.16145 6.86251C6.15395 7.17901 5.43895 7.38951 5.35695 7.42501C4.79445 7.60051 4.78295 7.61251 4.71245 8.13951C4.65395 8.53801 3.18945 19.8675 3.18945 19.8675L14.5895 22L20.776 20.6645C20.7875 20.641 18.62 5.99551 18.608 5.89001ZM13.9685 4.74151C13.6875 4.82351 13.3475 4.92901 13.008 5.04601V4.83551C13.008 4.20301 12.926 3.68751 12.7735 3.27701C13.359 3.34751 13.7225 3.99201 13.9685 4.74151ZM12.0585 3.40601C12.211 3.80451 12.3165 4.36701 12.3165 5.14001V5.25701C11.684 5.45601 11.016 5.65551 10.3245 5.87801C10.711 4.40201 11.4495 3.67551 12.0585 3.40601ZM11.3085 2.67951C11.4255 2.67951 11.543 2.72651 11.6365 2.79651C10.8045 3.18301 9.92595 4.15551 9.56245 6.12401C9.01195 6.29951 8.48445 6.45201 7.98095 6.61601C8.40295 5.11651 9.45745 2.67951 11.3085 2.67951Z" fill="#7CB342"/>
<path d="M18.4325 5.714C18.362 5.714 16.8275 5.597 16.8275 5.597C16.8275 5.597 15.7615 4.531 15.6325 4.4255C15.585 4.3785 15.5265 4.355 15.48 4.355L14.6245 22L20.811 20.6645C20.811 20.6645 18.6435 5.9955 18.6315 5.89C18.5845 5.7845 18.5025 5.7375 18.4325 5.714Z" fill="#558B2F"/>
<path d="M12.396 9.29649L11.6585 11.521C11.6585 11.521 10.99 11.1635 10.195 11.1635C9.00796 11.1635 8.95046 11.9125 8.95046 12.097C8.95046 13.111 11.601 13.503 11.601 15.8885C11.601 17.767 10.414 18.977 8.81196 18.977C6.87596 18.977 5.90796 17.7785 5.90796 17.7785L6.42646 16.073C6.42646 16.073 7.44046 16.949 8.29346 16.949C8.85796 16.949 9.08846 16.511 9.08846 16.1885C9.08846 14.863 6.92196 14.8055 6.92196 12.616C6.92196 10.7835 8.23596 9.00899 10.898 9.00899C11.8885 8.99699 12.396 9.29649 12.396 9.29649Z" fill="white"/>
</svg>
