<svg width="20" height="20" viewBox="0 0 20 20" fill="none" xmlns="http://www.w3.org/2000/svg">
<rect width="20" height="20" rx="4" fill="#F5F6F8"/>
<g clip-path="url(#clip0)">
<path d="M12.1253 12.1307H7.24065L5.14898 15.7842C5.40061 15.9122 5.68636 15.9942 5.87118 15.9942C7.79268 15.9942 11.7142 15.9658 13.6608 15.9658C13.861 15.9658 14.0484 15.8975 14.2164 15.7906L12.1253 12.1307Z" fill="#4185F3"/>
<path d="M5.14896 15.7846L7.24063 12.1309H3.00213C2.99999 12.3849 3.09027 12.6172 3.23172 12.8822C3.62581 13.6194 4.29256 14.798 4.68422 15.4136C4.78075 15.5653 5.16403 15.7923 5.14896 15.7846Z" fill="#1767D1"/>
<path d="M12.1253 12.1307L14.2171 15.7901C14.4882 15.6178 14.7091 15.3449 14.8526 15.0935C15.1764 14.5267 15.724 13.5829 16.1018 12.9438C16.2774 12.6467 16.3456 12.3799 16.3413 12.1304L12.1253 12.1307Z" fill="#E94235"/>
<path d="M7.24115 12.131L9.681 7.8894L7.50046 4.25396C7.2646 4.40906 7.06287 4.6196 6.97131 4.77997C6.01951 6.44927 4.10212 9.87046 3.13794 11.5614C3.03915 11.7344 2.99184 11.932 3.00161 12.131H7.24115Z" fill="#30A753"/>
<path d="M12.1252 12.131L9.68096 7.88939L11.8016 4.25807C12.0375 4.41332 12.2963 4.6196 12.3879 4.7801C13.3397 6.44926 15.257 9.87046 16.2216 11.5614C16.3211 11.7352 16.3511 11.932 16.3415 12.131H12.1252Z" fill="#F9BC00"/>
<path d="M7.50011 4.25446L9.68092 7.88933L11.8016 4.25802C11.5827 4.13007 11.2726 4.05429 10.9723 4.04477C10.137 4.0169 8.78272 4.00567 8.05384 4.03738C7.87414 4.04519 7.50238 4.2529 7.50011 4.25446Z" fill="#0F8038"/>
</g>
<defs>
<clipPath id="clip0">
<rect width="13.3511" height="12" fill="white" transform="translate(3 4)"/>
</clipPath>
</defs>
</svg>
