<svg width="13" height="15" viewBox="0 0 13 15" fill="none" xmlns="http://www.w3.org/2000/svg">
<path d="M6.16202 5.70461C5.90214 5.43473 5.90214 4.99717 6.16202 4.72728L8.9853 1.7953C9.24517 1.52542 9.66651 1.52542 9.92639 1.7953L12.7497 4.72728C13.0095 4.99716 13.0095 5.43473 12.7497 5.70461C12.4898 5.97449 12.0685 5.97449 11.8086 5.70461L10.1213 3.95237L10.1213 12.2402C10.1213 12.6219 9.82336 12.9313 9.45584 12.9313C9.08832 12.9313 8.79039 12.6219 8.79039 12.2402L8.79039 3.95237L7.10311 5.70461C6.84323 5.97449 6.42189 5.97449 6.16202 5.70461Z" fill="#717D96"/>
<path d="M1.0644 6.46284C0.997528 6.67878 0.797822 6.82599 0.571767 6.82599C0.221368 6.82599 -0.0270196 6.48406 0.0813114 6.15083L1.65166 1.32034C1.76791 0.962776 2.10114 0.720703 2.47713 0.720703C2.85299 0.720703 3.18614 0.96261 3.30249 1.32001L4.87508 6.15069C4.98357 6.48393 4.73519 6.82599 4.38474 6.82599C4.1588 6.82599 3.95918 6.67891 3.89222 6.46313L2.50554 1.99379C2.50166 1.98129 2.4901 1.97276 2.477 1.97276C2.4639 1.97276 2.45233 1.98129 2.44846 1.99381L1.0644 6.46284ZM0.987723 4.87635C0.987723 4.63104 1.18659 4.43217 1.43191 4.43217H3.51658C3.7619 4.43217 3.96076 4.63104 3.96076 4.87635C3.96076 5.12167 3.7619 5.32054 3.51658 5.32054H1.43191C1.18659 5.32054 0.987723 5.12167 0.987723 4.87635Z" fill="#717D96"/>
<path d="M0.931149 14.2792C0.581422 14.2792 0.297913 13.9957 0.297913 13.646C0.297913 13.5025 0.346632 13.3633 0.436091 13.2511L3.23372 9.74348C3.23878 9.73714 3.24153 9.72927 3.24153 9.72116C3.24153 9.70139 3.22551 9.68537 3.20574 9.68537H0.952051C0.644149 9.68537 0.394547 9.43576 0.394547 9.12786C0.394547 8.81996 0.64415 8.57036 0.952051 8.57036H4.20359C4.5816 8.57036 4.88803 8.87679 4.88803 9.2548C4.88803 9.40623 4.83781 9.55339 4.74522 9.67323L2.09316 13.1061C2.08829 13.1125 2.08564 13.1202 2.08564 13.1282C2.08564 13.1481 2.10177 13.1642 2.12167 13.1642H4.42716C4.73506 13.1642 4.98466 13.4138 4.98466 13.7217C4.98466 14.0296 4.73506 14.2792 4.42716 14.2792H0.931149Z" fill="#717D96"/>
</svg>
