<svg width="16" height="16" viewBox="0 0 16 16" fill="none" xmlns="http://www.w3.org/2000/svg">
<path fill-rule="evenodd" clip-rule="evenodd" d="M3.33301 2.66671C3.1562 2.66671 2.98663 2.73695 2.8616 2.86197C2.73658 2.98699 2.66634 3.15656 2.66634 3.33337V12.6667C2.66634 12.8435 2.73658 13.0131 2.8616 13.1381C2.98663 13.2631 3.1562 13.3334 3.33301 13.3334H5.99967C6.36786 13.3334 6.66634 13.6319 6.66634 14C6.66634 14.3682 6.36786 14.6667 5.99967 14.6667H3.33301C2.80257 14.6667 2.29387 14.456 1.91879 14.0809C1.54372 13.7058 1.33301 13.1971 1.33301 12.6667V3.33337C1.33301 2.80294 1.54372 2.29423 1.91879 1.91916C2.29387 1.54409 2.80257 1.33337 3.33301 1.33337H5.99967C6.36786 1.33337 6.66634 1.63185 6.66634 2.00004C6.66634 2.36823 6.36786 2.66671 5.99967 2.66671H3.33301ZM10.1949 4.1953C10.4553 3.93495 10.8774 3.93495 11.1377 4.1953L14.4711 7.52864C14.7314 7.78899 14.7314 8.2111 14.4711 8.47145L11.1377 11.8048C10.8774 12.0651 10.4553 12.0651 10.1949 11.8048C9.93459 11.5444 9.93459 11.1223 10.1949 10.862L12.3902 8.66671H5.99967C5.63148 8.66671 5.33301 8.36823 5.33301 8.00004C5.33301 7.63185 5.63148 7.33337 5.99967 7.33337H12.3902L10.1949 5.13811C9.93459 4.87776 9.93459 4.45565 10.1949 4.1953Z" fill="#2D3648"/>
</svg>
