<svg width="26" height="26" viewBox="0 0 26 26" fill="none" xmlns="http://www.w3.org/2000/svg">
<path d="M26 13C26 20.1797 20.1797 26 13 26C5.8203 26 0 20.1797 0 13C0 5.8203 5.8203 0 13 0C20.1797 0 26 5.8203 26 13Z" fill="#F5B774"/>
<path d="M14.7733 8L14.4942 16.0837H12.436L12.1395 8H14.7733ZM13.5174 20C13.0756 20 12.7093 19.8717 12.4186 19.6151C12.1395 19.3473 12 19.0181 12 18.6276C12 18.2371 12.1395 17.9135 12.4186 17.6569C12.7093 17.3891 13.0756 17.2552 13.5174 17.2552C13.9477 17.2552 14.3023 17.3891 14.5814 17.6569C14.8605 17.9135 15 18.2371 15 18.6276C15 19.0181 14.8605 19.3473 14.5814 19.6151C14.3023 19.8717 13.9477 20 13.5174 20Z" fill="white"/>
</svg>
