<svg width="20" height="20" viewBox="0 0 20 20" fill="none" xmlns="http://www.w3.org/2000/svg">
<rect width="20" height="20" rx="4" fill="#F5F6F8"/>
<path d="M11.1001 9.69982L6 8.7998V15.45C6 15.7537 6.2462 15.9999 6.54991 15.9999H15.3503C15.654 15.9999 15.9002 15.7537 15.9002 15.45V12.9999L11.1001 9.69982Z" fill="#185C37"/>
<path d="M11.1001 4H6.54991C6.2462 4 6 4.2462 6 4.54991V7.00005L11.1001 10.0001L13.8001 10.9001L15.9002 10.0001V7.00005L11.1001 4Z" fill="#21A366"/>
<path d="M6 7H11.1001V10H6V7Z" fill="#107C41"/>
<path opacity="0.1" d="M9.65016 6.3999H6V13.9H9.65016C9.95346 13.899 10.1991 13.6534 10.2001 13.3501V6.94981C10.1991 6.64651 9.95346 6.40089 9.65016 6.3999Z" fill="black"/>
<path opacity="0.2" d="M9.35016 6.7002H6V14.2003H9.35016C9.65345 14.1993 9.89908 13.9537 9.90006 13.6504V7.2501C9.89908 6.94681 9.65345 6.70118 9.35016 6.7002Z" fill="black"/>
<path opacity="0.2" d="M9.35016 6.7002H6V13.6003H9.35016C9.65345 13.5993 9.89908 13.3537 9.90006 13.0504V7.2501C9.89908 6.94681 9.65345 6.70118 9.35016 6.7002Z" fill="black"/>
<path opacity="0.2" d="M9.05015 6.7002H6V13.6003H9.05015C9.35345 13.5993 9.59907 13.3537 9.60006 13.0504V7.2501C9.59907 6.94681 9.35345 6.70118 9.05015 6.7002Z" fill="black"/>
<path d="M3.54991 6.7002H9.05019C9.3539 6.7002 9.6001 6.9464 9.6001 7.2501V12.7504C9.6001 13.0541 9.3539 13.3003 9.05019 13.3003H3.54991C3.2462 13.3003 3 13.0541 3 12.7504V7.2501C3 6.9464 3.2462 6.7002 3.54991 6.7002Z" fill="url(#paint0_linear_2475_30892)"/>
<path d="M4.70312 11.7876L5.85994 9.99503L4.80003 8.2124H5.65264L6.23105 9.35242C6.28445 9.46072 6.32105 9.54112 6.34085 9.59422H6.34835C6.38635 9.50782 6.42635 9.42392 6.46835 9.34252L7.08666 8.21301H7.86937L6.78245 9.98514L7.89698 11.7876H7.06417L6.39605 10.5362C6.36458 10.483 6.33788 10.4271 6.31626 10.3691H6.30636C6.28678 10.4259 6.26082 10.4803 6.22895 10.5311L5.54104 11.7876H4.70312Z" fill="white"/>
<path d="M15.3498 4H11.0996V7.00005H15.8997V4.54991C15.8997 4.2462 15.6535 4 15.3498 4Z" fill="#33C481"/>
<path d="M11.0996 10H15.8997V13H11.0996V10Z" fill="#107C41"/>
<defs>
<linearGradient id="paint0_linear_2475_30892" x1="4.14657" y1="6.27051" x2="8.45354" y2="13.73" gradientUnits="userSpaceOnUse">
<stop stop-color="#18884F"/>
<stop offset="0.5" stop-color="#117E43"/>
<stop offset="1" stop-color="#0B6631"/>
</linearGradient>
</defs>
</svg>
