<svg width="15" height="14" viewBox="0 0 15 14" fill="none" xmlns="http://www.w3.org/2000/svg">
<path d="M2.83325 0.333374C2.30282 0.333374 1.79411 0.544088 1.41904 0.91916C1.04397 1.29423 0.833252 1.80294 0.833252 2.33337V4.33337C0.833252 4.70156 1.13173 5.00004 1.49992 5.00004C1.86811 5.00004 2.16659 4.70156 2.16659 4.33337V2.33337C2.16659 2.15656 2.23682 1.98699 2.36185 1.86197C2.48687 1.73695 2.65644 1.66671 2.83325 1.66671H4.83325C5.20144 1.66671 5.49992 1.36823 5.49992 1.00004C5.49992 0.631851 5.20144 0.333374 4.83325 0.333374H2.83325Z" fill="#2D3648"/>
<path d="M10.1666 0.333374C9.7984 0.333374 9.49992 0.631851 9.49992 1.00004C9.49992 1.36823 9.7984 1.66671 10.1666 1.66671H12.1666C12.3434 1.66671 12.513 1.73695 12.638 1.86197C12.763 1.98699 12.8333 2.15656 12.8333 2.33337V4.33337C12.8333 4.70156 13.1317 5.00004 13.4999 5.00004C13.8681 5.00004 14.1666 4.70156 14.1666 4.33337V2.33337C14.1666 1.80294 13.9559 1.29423 13.5808 0.91916C13.2057 0.544088 12.697 0.333374 12.1666 0.333374H10.1666Z" fill="#2D3648"/>
<path d="M2.16659 9.66671C2.16659 9.29852 1.86811 9.00004 1.49992 9.00004C1.13173 9.00004 0.833252 9.29852 0.833252 9.66671V11.6667C0.833252 12.1971 1.04397 12.7058 1.41904 13.0809C1.79411 13.456 2.30282 13.6667 2.83325 13.6667H4.83325C5.20144 13.6667 5.49992 13.3682 5.49992 13C5.49992 12.6319 5.20144 12.3334 4.83325 12.3334H2.83325C2.65644 12.3334 2.48687 12.2631 2.36185 12.1381C2.23682 12.0131 2.16659 11.8435 2.16659 11.6667V9.66671Z" fill="#2D3648"/>
<path d="M14.1666 9.66671C14.1666 9.29852 13.8681 9.00004 13.4999 9.00004C13.1317 9.00004 12.8333 9.29852 12.8333 9.66671V11.6667C12.8333 11.8435 12.763 12.0131 12.638 12.1381C12.513 12.2631 12.3434 12.3334 12.1666 12.3334H10.1666C9.7984 12.3334 9.49992 12.6319 9.49992 13C9.49992 13.3682 9.7984 13.6667 10.1666 13.6667H12.1666C12.697 13.6667 13.2057 13.456 13.5808 13.0809C13.9559 12.7058 14.1666 12.1971 14.1666 11.6667V9.66671Z" fill="#2D3648"/>
</svg>
