<svg width="16" height="16" viewBox="0 0 16 16" fill="none" xmlns="http://www.w3.org/2000/svg">
<path fill-rule="evenodd" clip-rule="evenodd" d="M3.33325 14.6667C2.22868 14.6667 1.33325 13.7712 1.33325 12.6667V3.33334C1.33325 2.22877 2.22868 1.33334 3.33325 1.33334H12.6666C13.7712 1.33334 14.6666 2.22877 14.6666 3.33334V12.6667C14.6666 13.7712 13.7712 14.6667 12.6666 14.6667H3.33325ZM3.33325 2.66668C2.96506 2.66668 2.66659 2.96515 2.66659 3.33334V5.33334H13.3333V3.33334C13.3333 2.96515 13.0348 2.66668 12.6666 2.66668H3.33325ZM5.33325 6.66668H2.66659V12.6667C2.66659 13.0349 2.96506 13.3333 3.33325 13.3333H5.33325V6.66668ZM6.66659 13.3333V6.66668H13.3333V12.6667C13.3333 13.0349 13.0348 13.3333 12.6666 13.3333H6.66659Z" fill="#717D96"/>
</svg>
