<svg width="17" height="16" viewBox="0 0 17 16" fill="none" xmlns="http://www.w3.org/2000/svg">
<rect x="0.960938" width="16" height="16" rx="8" fill="#F7F9FC"/>
<path d="M12.2649 4.945C12.2592 4.89225 12.2122 4.86875 12.1772 4.86875C12.1422 4.86875 11.3747 4.81025 11.3747 4.81025C11.3747 4.81025 10.8417 4.27725 10.7772 4.2245C10.7187 4.166 10.6072 4.1835 10.5604 4.19525C10.5547 4.19525 10.4432 4.2305 10.2617 4.289C10.0802 3.7675 9.76966 3.293 9.21316 3.293H9.16041C9.00766 3.09375 8.80866 3 8.64466 3C7.35591 3 6.73491 4.611 6.54166 5.43125C6.03791 5.5895 5.68041 5.69475 5.63941 5.7125C5.35816 5.80025 5.35241 5.80625 5.31716 6.06975C5.28791 6.269 4.55566 11.9338 4.55566 11.9338L10.2557 13L13.3489 12.3323C13.3547 12.3205 12.2709 4.99775 12.2649 4.945ZM9.94516 4.37075C9.80466 4.41175 9.63467 4.4645 9.46491 4.523V4.41775C9.46491 4.1015 9.42391 3.84375 9.34766 3.6385C9.64042 3.67375 9.82217 3.996 9.94516 4.37075ZM8.99016 3.703C9.06641 3.90225 9.11916 4.1835 9.11916 4.57V4.6285C8.80291 4.728 8.46891 4.82775 8.12316 4.939C8.31641 4.201 8.68566 3.83775 8.99016 3.703ZM8.61516 3.33975C8.67366 3.33975 8.73241 3.36325 8.77916 3.39825C8.36316 3.5915 7.92391 4.07775 7.74216 5.062C7.46691 5.14975 7.20316 5.226 6.95141 5.308C7.16241 4.55825 7.68966 3.33975 8.61516 3.33975Z" fill="#7CB342"/>
<path d="M12.1772 4.85699C12.1419 4.85699 11.3747 4.79849 11.3747 4.79849C11.3747 4.79849 10.8417 4.26549 10.7772 4.21274C10.7534 4.18924 10.7242 4.17749 10.7009 4.17749L10.2732 13L13.3664 12.3322C13.3664 12.3322 12.2827 4.99774 12.2767 4.94499C12.2532 4.89224 12.2122 4.86874 12.1772 4.85699Z" fill="#558B2F"/>
<path d="M9.15904 6.6482L8.79029 7.76045C8.79029 7.76045 8.45604 7.5817 8.05854 7.5817C7.46504 7.5817 7.43629 7.9562 7.43629 8.04845C7.43629 8.55545 8.76154 8.75145 8.76154 9.9442C8.76154 10.8834 8.16804 11.4884 7.36704 11.4884C6.39904 11.4884 5.91504 10.8892 5.91504 10.8892L6.17429 10.0364C6.17429 10.0364 6.68129 10.4744 7.10779 10.4744C7.39004 10.4744 7.50529 10.2554 7.50529 10.0942C7.50529 9.43145 6.42204 9.4027 6.42204 8.30795C6.42204 7.3917 7.07904 6.50445 8.41004 6.50445C8.90529 6.49845 9.15904 6.6482 9.15904 6.6482Z" fill="white"/>
</svg>
