<svg width="20" height="20" viewBox="0 0 20 20" fill="none" xmlns="http://www.w3.org/2000/svg">
<path d="M15.0864 5.312C15.0772 5.2276 15.002 5.19001 14.946 5.19001C14.89 5.19001 13.662 5.09641 13.662 5.09641C13.662 5.09641 12.8092 4.2436 12.706 4.1592C12.6124 4.0656 12.434 4.0936 12.3592 4.1124C12.35 4.1124 12.1716 4.1688 11.8812 4.2624C11.5908 3.428 11.094 2.6688 10.2036 2.6688H10.1192C9.87476 2.35 9.55636 2.2 9.29396 2.2C7.23196 2.2 6.23836 4.7776 5.92916 6.09C5.12316 6.3432 4.55116 6.5116 4.48556 6.54C4.03556 6.68041 4.02636 6.69 3.96996 7.1116C3.92316 7.4304 2.75156 16.494 2.75156 16.494L11.8716 18.2L16.8208 17.1316C16.83 17.1128 15.096 5.3964 15.0864 5.312ZM11.3748 4.3932C11.15 4.4588 10.878 4.5432 10.6064 4.6368V4.4684C10.6064 3.9624 10.5408 3.55 10.4188 3.2216C10.8872 3.278 11.178 3.7936 11.3748 4.3932ZM9.84676 3.3248C9.96876 3.6436 10.0532 4.0936 10.0532 4.712V4.8056C9.54716 4.9648 9.01276 5.1244 8.45956 5.3024C8.76876 4.1216 9.35956 3.5404 9.84676 3.3248ZM9.24676 2.7436C9.34036 2.7436 9.43436 2.7812 9.50916 2.8372C8.84356 3.1464 8.14076 3.9244 7.84996 5.49921C7.40956 5.63961 6.98756 5.76161 6.58476 5.89281C6.92236 4.69321 7.76596 2.7436 9.24676 2.7436Z" fill="#7CB342"/>
<path d="M14.9459 5.17119C14.8895 5.17119 13.6619 5.07759 13.6619 5.07759C13.6619 5.07759 12.8091 4.22479 12.7059 4.14039C12.6679 4.10279 12.6211 4.08399 12.5839 4.08399L11.8995 18.2L16.8487 17.1316C16.8487 17.1316 15.1147 5.39639 15.1051 5.31199C15.0675 5.22759 15.0019 5.18999 14.9459 5.17119Z" fill="#558B2F"/>
<path d="M10.1168 8.03719L9.5268 9.81679C9.5268 9.81679 8.992 9.53079 8.356 9.53079C7.4064 9.53079 7.3604 10.13 7.3604 10.2776C7.3604 11.0888 9.4808 11.4024 9.4808 13.3108C9.4808 14.8136 8.5312 15.7816 7.2496 15.7816C5.7008 15.7816 4.9264 14.8228 4.9264 14.8228L5.3412 13.4584C5.3412 13.4584 6.1524 14.1592 6.8348 14.1592C7.2864 14.1592 7.4708 13.8088 7.4708 13.5508C7.4708 12.4904 5.7376 12.4444 5.7376 10.6928C5.7376 9.22679 6.7888 7.80719 8.9184 7.80719C9.7108 7.79759 10.1168 8.03719 10.1168 8.03719Z" fill="white"/>
</svg>
