<svg width="15" height="14" viewBox="0 0 15 14" fill="none" xmlns="http://www.w3.org/2000/svg">
<path fill-rule="evenodd" clip-rule="evenodd" d="M2.83325 13.6667C1.72868 13.6667 0.833252 12.7713 0.833252 11.6667V2.33337C0.833252 1.2288 1.72868 0.333374 2.83325 0.333374H12.1666C13.2712 0.333374 14.1666 1.2288 14.1666 2.33337V11.6667C14.1666 12.7713 13.2712 13.6667 12.1666 13.6667H2.83325ZM2.83325 1.66671C2.46506 1.66671 2.16659 1.96518 2.16659 2.33337V4.33337H12.8333V2.33337C12.8333 1.96518 12.5348 1.66671 12.1666 1.66671H2.83325ZM4.83325 5.66671H2.16659V11.6667C2.16659 12.0349 2.46506 12.3334 2.83325 12.3334H4.83325V5.66671ZM6.16659 12.3334V5.66671H12.8333V11.6667C12.8333 12.0349 12.5348 12.3334 12.1666 12.3334H6.16659Z" fill="#2D3648"/>
</svg>
