<svg width="88" height="24" viewBox="0 0 88 24" fill="none" xmlns="http://www.w3.org/2000/svg">
<path d="M0 4.8C0 2.14903 2.14903 0 4.8 0H19.2C21.851 0 24 2.14903 24 4.8V19.2C24 21.851 21.851 24 19.2 24H4.8C2.14903 24 0 21.851 0 19.2V4.8Z" fill="url(#paint0_linear_837_958)"/>
<path d="M9.5 14.8V11.2C9.5 10.9434 9.82886 10.6 10.1 10.6H13.7C13.9711 10.6 14.3 10.9434 14.3 11.2V17.2C14.3 17.4566 13.9711 17.8 13.7 17.8H12.5C12.2289 17.8 11.9153 17.4566 11.9153 17.2L11.9 16C11.9 15.7434 11.5711 15.4 11.3 15.4H10.1C9.82886 15.4 9.5 15.0566 9.5 14.8Z" fill="#19181A"/>
<path d="M9.5 17.8C9.5 17.481 9.7629 17.2 10.1 17.2H11.3C11.6371 17.2 11.9 17.481 11.9 17.8V19C11.9 19.319 11.6371 19.6 11.3 19.6H10.1C9.7629 19.6 9.5 19.319 9.5 19V17.8Z" fill="#19181A"/>
<path d="M9.5 4.6C9.5 4.28096 9.7629 4 10.1 4H13.7C14.0371 4 14.3 4.28096 14.3 4.6V7.9C14.3 8.21904 14.0371 8.5 13.7 8.5H10.1C9.7629 8.5 9.5 8.21904 9.5 7.9V4.6Z" fill="#19181A"/>
<path d="M36.6923 8.69167C36.9986 8.69167 37.283 8.74167 37.5455 8.84167C37.8134 8.93611 38.0459 9.07222 38.2427 9.25C38.4451 9.42778 38.6037 9.64167 38.7185 9.89167C38.8334 10.1417 38.8908 10.4222 38.8908 10.7333C38.8908 11.0389 38.8334 11.3194 38.7185 11.575C38.6037 11.825 38.4451 12.0389 38.2427 12.2167C38.0459 12.3944 37.8134 12.5333 37.5455 12.6333C37.283 12.7278 36.9986 12.775 36.6923 12.775H33.6243V14.525H32V8.69167H36.6923ZM33.6243 9.85833V11.6083H36.6923C36.7962 11.6083 36.9001 11.5861 37.004 11.5417C37.1079 11.4917 37.2009 11.4278 37.283 11.35C37.365 11.2722 37.4306 11.1806 37.4798 11.075C37.5291 10.9694 37.5537 10.8556 37.5537 10.7333C37.5537 10.5944 37.5291 10.4722 37.4798 10.3667C37.4306 10.2556 37.365 10.1639 37.283 10.0917C37.2009 10.0139 37.1079 9.95556 37.004 9.91667C36.9001 9.87778 36.7962 9.85833 36.6923 9.85833H33.6243Z" fill="#19181A"/>
<path d="M44.6405 8.69167H49.136C49.4422 8.69167 49.7293 8.73611 49.9973 8.825C50.2653 8.90833 50.4977 9.03611 50.6946 9.20833C50.8969 9.375 51.0555 9.58611 51.1704 9.84167C51.2852 10.0972 51.3427 10.3944 51.3427 10.7333C51.3427 10.9222 51.3126 11.0972 51.2524 11.2583C51.1977 11.4139 51.1212 11.5528 51.0227 11.675C50.9243 11.7917 50.8094 11.8944 50.6782 11.9833C50.5524 12.0722 50.4211 12.1417 50.2844 12.1917C50.443 12.2139 50.5907 12.2694 50.7274 12.3583C50.8641 12.4417 50.9844 12.55 51.0884 12.6833C51.1977 12.8111 51.2825 12.9583 51.3427 13.125C51.4028 13.2917 51.4329 13.4667 51.4329 13.65V13.9417C51.4329 14.0694 51.4384 14.1722 51.4493 14.25C51.4602 14.3222 51.4712 14.3806 51.4821 14.425C51.4985 14.475 51.5149 14.5083 51.5313 14.525H49.9973C49.9809 14.5028 49.9672 14.4667 49.9563 14.4167C49.9454 14.3722 49.9344 14.3139 49.9235 14.2417C49.9125 14.1694 49.9071 14.0694 49.9071 13.9417C49.9071 13.7306 49.8606 13.5528 49.7676 13.4083C49.6801 13.2583 49.5707 13.1389 49.4395 13.05C49.3137 12.9556 49.1797 12.8861 49.0375 12.8417C48.8953 12.7972 48.7695 12.775 48.6602 12.775H46.2648V14.525H44.6405V8.69167ZM49.0457 11.6083C49.1496 11.6083 49.2535 11.5861 49.3574 11.5417C49.4614 11.4917 49.5543 11.4278 49.6364 11.35C49.7184 11.2722 49.784 11.1806 49.8332 11.075C49.8825 10.9694 49.9071 10.8556 49.9071 10.7333C49.9071 10.5944 49.8825 10.4722 49.8332 10.3667C49.784 10.2556 49.7184 10.1639 49.6364 10.0917C49.5543 10.0139 49.4614 9.95556 49.3574 9.91667C49.2535 9.87778 49.1496 9.85833 49.0457 9.85833H46.2648V11.6083H49.0457Z" fill="#19181A"/>
<path d="M58.9854 12.1094V13.3583H63.489V14.525H57.3612V8.69167H63.489V9.85833H58.9854V11.0156H63.3939V12.1094H58.9854Z" fill="#19181A"/>
<path d="M74.3394 14.4583C74.0933 14.5472 73.839 14.6111 73.5765 14.65C73.3195 14.6944 73.0515 14.7167 72.7726 14.7167C72.2968 14.7167 71.8402 14.65 71.4026 14.5167C70.9651 14.3833 70.5768 14.1861 70.2378 13.925C69.9042 13.6639 69.6362 13.3417 69.4338 12.9583C69.237 12.5694 69.1385 12.1194 69.1385 11.6083C69.1385 11.0972 69.237 10.65 69.4338 10.2667C69.6362 9.87778 69.9042 9.55278 70.2378 9.29167C70.5768 9.03056 70.9651 8.83333 71.4026 8.7C71.8402 8.56667 72.2968 8.5 72.7726 8.5C73.2484 8.5 73.7051 8.56667 74.1426 8.7C74.5855 8.83333 74.9738 9.03056 75.3074 9.29167C75.6465 9.55278 75.9145 9.87778 76.1114 10.2667C76.3137 10.65 76.4149 11.0972 76.4149 11.6083C76.4149 12.075 76.3301 12.4889 76.1606 12.85C75.9965 13.2056 75.7723 13.5139 75.4879 13.775L76.4149 14.7167L75.3567 15.5L74.3394 14.4583ZM74.7824 11.6083C74.7824 11.2861 74.7332 11.0139 74.6348 10.7917C74.5418 10.5694 74.4051 10.3889 74.2246 10.25C74.0496 10.1111 73.839 10.0111 73.5929 9.95C73.3468 9.88889 73.0734 9.85833 72.7726 9.85833C72.4718 9.85833 72.1984 9.88889 71.9523 9.95C71.7062 10.0111 71.4956 10.1111 71.3206 10.25C71.1456 10.3889 71.0089 10.5694 70.9104 10.7917C70.812 11.0139 70.7628 11.2861 70.7628 11.6083C70.7628 11.9306 70.812 12.2028 70.9104 12.425C71.0089 12.6472 71.1456 12.8278 71.3206 12.9667C71.4956 13.1056 71.7062 13.2056 71.9523 13.2667C72.1984 13.3278 72.4718 13.3583 72.7726 13.3583C72.9312 13.3583 73.0843 13.35 73.232 13.3333L72.4855 12.5833L73.5437 11.8L74.4625 12.7333C74.5664 12.6 74.6457 12.4417 74.7004 12.2583C74.7551 12.075 74.7824 11.8583 74.7824 11.6083Z" fill="#19181A"/>
<path d="M82.2577 8.69167H83.8819V13.3583H88V14.525H82.2577V8.69167Z" fill="#19181A"/>
<defs>
<linearGradient id="paint0_linear_837_958" x1="12" y1="3.34472e-08" x2="12" y2="25.554" gradientUnits="userSpaceOnUse">
<stop stop-color="#A7FBCC"/>
<stop offset="1" stop-color="#D5FFE7"/>
</linearGradient>
</defs>
</svg>
