<svg width="48" height="48" viewBox="0 0 48 48" fill="none" xmlns="http://www.w3.org/2000/svg">
<path d="M0 9.6C0 4.29807 4.29807 0 9.6 0H38.4C43.7019 0 48 4.29807 48 9.6V38.4C48 43.7019 43.7019 48 38.4 48H9.6C4.29807 48 0 43.7019 0 38.4V9.6Z" fill="url(#paint0_linear_352_1433)"/>
<path d="M19.5 29.9615V22.8077C19.5 22.2977 20.1166 21.6154 20.625 21.6154H27.375C27.8834 21.6154 28.5 22.2977 28.5 22.8077V34.7308C28.5 35.2407 27.8834 35.9231 27.375 35.9231H25.125C24.6166 35.9231 24.0287 35.2407 24.0287 34.7308L24 32.3462C24 31.8362 23.3834 31.1538 22.875 31.1538H20.625C20.1166 31.1538 19.5 30.4715 19.5 29.9615Z" fill="#19181A"/>
<path d="M19.5 35.9231C19.5 35.2891 19.9929 34.7308 20.625 34.7308H22.875C23.5071 34.7308 24 35.2891 24 35.9231V38.3077C24 38.9417 23.5071 39.5 22.875 39.5H20.625C19.9929 39.5 19.5 38.9417 19.5 38.3077V35.9231Z" fill="#19181A"/>
<path d="M19.5 9.69231C19.5 9.05832 19.9929 8.5 20.625 8.5H27.375C28.0071 8.5 28.5 9.05832 28.5 9.69231V16.25C28.5 16.884 28.0071 17.4423 27.375 17.4423H20.625C19.9929 17.4423 19.5 16.884 19.5 16.25V9.69231Z" fill="#19181A"/>
<defs>
<linearGradient id="paint0_linear_352_1433" x1="24" y1="6.68943e-08" x2="24" y2="51.1079" gradientUnits="userSpaceOnUse">
<stop stop-color="#A7FBCC"/>
<stop offset="1" stop-color="#D5FFE7"/>
</linearGradient>
</defs>
</svg>
